<svg xmlns="http://www.w3.org/2000/svg" viewBox="0 0 91.71 75.13"><defs><style>.cls-1{fill:#b3b3b3;}.cls-2,.cls-4{fill:#ea8e44;}.cls-3{fill:#fff;}.cls-4{stroke:#ea8e44;stroke-miterlimit:10;stroke-width:0.73px;}.cls-5{fill:#f6f5f0;}</style></defs><title>adresse</title><g id="background"><ellipse class="cls-1" cx="45.85" cy="37.56" rx="45.85" ry="37.56"/></g><g id="Layer_1" data-name="Layer 1"><polygon class="cls-2" points="72.71 25.15 45.85 25.04 19 24.93 32.46 16.83 45.92 8.72 59.31 16.94 72.71 25.15"/><rect class="cls-2" x="31.53" y="23.81" width="28.67" height="27.5"/><path class="cls-2" d="M60.2,18.81H31.53a5.08,5.08,0,0,0-5,5v27.5a5.07,5.07,0,0,0,5,5H60.2a5.07,5.07,0,0,0,5-5V23.81c0-6.43-10-6.44-10,0v27.5l5-5H31.53l5,5V23.81l-5,5H60.2C66.63,28.81,66.64,18.81,60.2,18.81Z"/><path class="cls-3" d="M48,56.47c4.14-.16,8.23-.07,12.18,0,0-.23,0-.46,0-.7V45.68a6.38,6.38,0,0,0-12.76,0V55.8a4.49,4.49,0,0,0,0,.64Z"/><circle class="cls-4" cx="57.2" cy="49.19" r="0.82"/><rect class="cls-5" x="36.82" y="33.19" width="4.37" height="4.38"/><path class="cls-3" d="M41.19,37.19H36.82l.37.37V33.19l-.37.37h4.37l-.37-.37v4.37a.38.38,0,0,0,.75,0V33.19a.39.39,0,0,0-.38-.38H36.82a.39.39,0,0,0-.38.38v4.37a.38.38,0,0,0,.38.38h4.37A.38.38,0,0,0,41.19,37.19Z"/><rect class="cls-5" x="36.82" y="27.28" width="4.37" height="4.38"/><path class="cls-3" d="M41.19,31.28H36.82l.37.38V27.28l-.37.38h4.37l-.37-.38v4.38a.38.38,0,0,0,.75,0V27.28a.38.38,0,0,0-.38-.37H36.82a.38.38,0,0,0-.38.37v4.38a.38.38,0,0,0,.38.37h4.37A.38.38,0,0,0,41.19,31.28Z"/><rect class="cls-5" x="30.79" y="27.28" width="4.37" height="4.38"/><path class="cls-3" d="M35.16,31.28H30.79l.37.38V27.28l-.37.38h4.37l-.37-.38v4.38a.38.38,0,0,0,.75,0V27.28a.38.38,0,0,0-.38-.37H30.79a.38.38,0,0,0-.38.37v4.38a.38.38,0,0,0,.38.37h4.37A.38.38,0,0,0,35.16,31.28Z"/><rect class="cls-5" x="30.79" y="33.19" width="4.37" height="4.38"/><path class="cls-3" d="M35.16,37.19H30.79l.37.37V33.19l-.37.37h4.37l-.37-.37v4.37a.38.38,0,0,0,.75,0V33.19a.39.39,0,0,0-.38-.38H30.79a.39.39,0,0,0-.38.38v4.37a.38.38,0,0,0,.38.38h4.37A.38.38,0,0,0,35.16,37.19Z"/></g></svg>