<?xml version="1.0" encoding="utf-8"?>
<!-- Generator: Adobe Illustrator 22.1.0, SVG Export Plug-In . SVG Version: 6.00 Build 0)  -->
<svg version="1.1" id="Layer_1" xmlns="http://www.w3.org/2000/svg" xmlns:xlink="http://www.w3.org/1999/xlink" x="0px" y="0px"
	 viewBox="0 0 52 52.3" style="enable-background:new 0 0 52 52.3;" xml:space="preserve">
<style type="text/css">
	.st0{fill:#EA8E44;}
	.st1{fill:#EA8E44;stroke:#EA8E44;stroke-width:1.0493;stroke-miterlimit:10;}
	.st2{fill:#FFFFFF;}
</style>
<g>
	<g>
		<path class="st0" d="M0.1,11.4C3,31.2,16.3,44.6,34.4,52c5.9,2.4,8.5-7.2,2.7-9.6C22,36.2,12.1,24.9,9.8,8.7
			C8.8,2.4-0.8,5.1,0.1,11.4L0.1,11.4z"/>
	</g>
</g>
<g>
	<path class="st0" d="M12,15.2l-5.6,1.4c-1.3,0.3-2.7-0.5-3-1.8L2.2,9.9C1.8,8.6,2.7,7.2,4,6.9l5.6-1.4c1.3-0.3,2.7,0.5,3,1.8
		l1.2,4.9C14.2,13.5,13.3,14.9,12,15.2z"/>
	<g>
		<path class="st0" d="M11.6,13.8c-0.9,0.2-1.9,0.5-2.8,0.7c-0.7,0.2-2.2,0.9-3,0.7c-1.3-0.3-1.4-2.3-1.6-3.2
			C3.9,10.8,3,9.1,4.4,8.3C5,7.9,6.2,7.9,7,7.7c0.8-0.2,2.2-0.9,3.1-0.8c1.4,0.2,1.4,2,1.7,3C12,10.9,13.1,13.2,11.6,13.8
			c-1.8,0.7-1,3.5,0.8,2.8c2.4-0.9,3.3-2.8,2.7-5.2c-0.3-1.6-0.6-3.5-1.3-5C12.1,2.4,6.7,4.5,3.6,5.5c-2.3,0.7-3.2,2.8-2.8,5
			c0.3,1.7,0.7,3.7,1.4,5.2c1.8,4.1,7.1,1.7,10.2,0.9C14.2,16.2,13.5,13.3,11.6,13.8z"/>
	</g>
</g>
<g>
	<path class="st0" d="M41.8,43l-2.6,5.7C38.6,50,37,50.6,35.7,50l-4.8-2.2c-1.3-0.6-1.9-2.2-1.3-3.6l2.6-5.7
		c0.6-1.3,2.2-1.9,3.6-1.3l4.8,2.2C41.8,40,42.4,41.6,41.8,43z"/>
	<g>
		<path class="st0" d="M40.4,42.2c-0.8,1.8-1.4,4.1-2.6,5.7c-1.1,1.5-2.5,0.3-3.8-0.3c-0.9-0.4-3-1-3.1-2.2
			c-0.1-0.9,0.9-2.3,1.3-3.1c0.4-0.9,0.7-2.1,1.3-2.8c1-1.4,2.5-0.2,3.8,0.3c1.2,0.6,3.5,1.1,3,2.9c-0.6,1.9,2.4,2.8,3,0.8
			c0.8-2.4-0.3-4.4-2.5-5.5c-1.6-0.8-3.5-1.9-5.3-2.3c-4.3-1-6.3,5-7.4,8.1c-1.6,4.6,3.8,6.9,7.4,7.9c4.7,1.3,6.2-4.7,7.6-7.8
			C44,41.9,41.3,40.3,40.4,42.2z"/>
	</g>
</g>
<circle class="st1" cx="38.7" cy="13.6" r="12.7"/>
<g>
	<polygon class="st0" points="40.6,21.7 43.1,20 45.7,18.4 46.8,22.9 48,27.5 44.3,24.6 	"/>
	<g>
		<path class="st0" d="M41.5,23.3c1.7-1.1,3.4-2.2,5.2-3.4c-0.9-0.4-1.8-0.7-2.7-1.1c0.8,3,1.5,6.1,2.3,9.1c1-0.6,2-1.2,3.1-1.8
			c-2.5-1.9-4.9-3.8-7.4-5.7C40,19,37.4,21.6,39.3,23c2.5,1.9,4.9,3.8,7.4,5.7c1.4,1.1,3.5,0.1,3.1-1.8c-0.8-3-1.5-6.1-2.3-9.1
			c-0.3-1.1-1.7-1.7-2.7-1.1c-1.7,1.1-3.4,2.2-5.2,3.4C37.7,21.4,39.5,24.6,41.5,23.3z"/>
	</g>
</g>
<g>
	<g>
		<path class="st2" d="M48.4,6.8c-6.5,0-13,0-19.5,0c-0.4,0-0.8,0.3-0.8,0.8c0,4.1,0,8.3,0,12.4c0,0.4,0.3,0.8,0.8,0.8
			c6.5,0,13,0,19.5,0c0.4,0,0.8-0.3,0.8-0.8c0-4.1,0-8.2,0-12.4c0-1-1.5-1-1.5,0c0,2.8,0,5.6,0,8.5c0,1.2,0.2,2.6,0,3.9
			c0.2-1.5,1.2-0.4,0.1-0.7c-0.3-0.1-0.8,0-1.1,0c-3.4,0-6.9,0-10.3,0c-1.7,0-3.5,0-5.2,0c-0.6,0-2.5-0.4-1.8,0.3
			c0.7,0.7,0.4-2.1,0.4-2.8c0-1.9,0-3.7,0-5.6c0-1.1-0.2-2.4,0-3.5c-0.2,1.5-1.2,0.4-0.1,0.7c0.4,0.1,1,0,1.4,0c5.8,0,11.7,0,17.5,0
			C49.4,8.3,49.4,6.8,48.4,6.8z"/>
	</g>
</g>
<g>
	<g>
		<path class="st2" d="M28.9,8.2c6.5,0,13,0,19.5,0.1c-0.1-0.4-0.2-0.8-0.3-1.2c-1.6,1.1-3.3,2.1-4.9,3.2c-0.7,0.5-1.4,0.9-2.1,1.4
			c-0.6,0.4-1.2,0.7-1.7,1.1c-0.2,0.2-1.2,0.6-0.7,0.6c0.2,0-1.6-1.2-2.1-1.5c-0.8-0.5-1.6-1.1-2.4-1.6c-1.6-1.1-3.2-2.1-4.9-3.2
			c-0.7-0.5-1.4,0.7-0.7,1.2c3.2,2.1,6.5,4.2,9.7,6.4c0.2,0.1,0.5,0.1,0.7,0c3.3-2.1,6.5-4.2,9.8-6.3C49.3,7.9,49.1,7,48.4,7
			c-6.5,0-13,0-19.5-0.1C28.1,6.9,28.1,8.2,28.9,8.2z"/>
	</g>
</g>
</svg>
