<svg xmlns="http://www.w3.org/2000/svg" viewBox="0 0 91.71 75.13"><defs><style>.cls-1{fill:#b3b3b3;}.cls-2{fill:#fff;}.cls-3{fill:#ea8e44;}</style></defs><title>mail</title><g id="background"><ellipse class="cls-1" cx="45.85" cy="37.56" rx="45.85" ry="37.56"/></g><g id="Layer_1" data-name="Layer 1"><rect class="cls-2" x="14.01" y="19.99" width="62.33" height="35.36"/><path class="cls-3" d="M76.34,17.73H14A2.3,2.3,0,0,0,11.74,20V55.36A2.3,2.3,0,0,0,14,57.62H76.34a2.3,2.3,0,0,0,2.27-2.26V20c0-2.91-4.53-2.92-4.53,0V55.36l2.26-2.27H14l2.27,2.27V20L14,22.26H76.34C79.26,22.26,79.26,17.73,76.34,17.73Z"/><polygon class="cls-2" points="14.06 19.85 45.2 19.92 76.34 19.99 60.73 32.84 45.12 45.68 29.59 32.77 14.06 19.85"/><path class="cls-3" d="M14.06,22.26l62.28.14-1.7-4.11L43.42,44h3.41L15.77,18.14c-2.37-2-5.8,1.42-3.41,3.41L43.42,47.39a2.51,2.51,0,0,0,3.41,0L78.05,21.7c1.67-1.38.24-4.11-1.71-4.12l-62.28-.14C11,17.43,11,22.25,14.06,22.26Z"/></g></svg>