<?xml version="1.0" encoding="utf-8"?>
<!-- Generator: Adobe Illustrator 22.1.0, SVG Export Plug-In . SVG Version: 6.00 Build 0)  -->
<svg version="1.1" id="Layer_1" xmlns="http://www.w3.org/2000/svg" xmlns:xlink="http://www.w3.org/1999/xlink" x="0px" y="0px"
	 viewBox="0 0 60.5 68.8" style="enable-background:new 0 0 60.5 68.8;" xml:space="preserve">
<style type="text/css">
	.st0{fill:#EA8E44;stroke:#EA8E44;stroke-width:1.2369;stroke-miterlimit:10;}
	.st1{fill:#EA8E44;}
	.st2{fill:#FFFFFF;stroke:#EA8E44;stroke-width:1.0136;stroke-miterlimit:10;}
</style>
<circle class="st0" cx="16.2" cy="16.3" r="14.5"/>
<g>
	<polygon class="st1" points="3.1,18.9 16.5,52.2 29.2,18.7 3.1,18.9 16.5,52.2 29.2,18.7 	"/>
	<g>
		<path class="st1" d="M1.7,19.3c4.5,11.1,8.9,22.2,13.4,33.3c0.6,1.4,2.3,1.4,2.8,0c4.3-11.2,8.5-22.3,12.8-33.5
			c0.3-0.9-0.5-1.9-1.4-1.9c-8.7,0.1-17.4,0.2-26.1,0.2C2.3,17.4,1.3,18.4,1.7,19.3c4.5,11.1,8.9,22.2,13.4,33.3
			c0.6,1.4,2.3,1.4,2.8,0c4.3-11.2,8.5-22.3,12.8-33.5c0.3-0.9-0.5-1.9-1.4-1.9c-8.7,0.1-17.4,0.2-26.1,0.2c-1.9,0-1.9,3,0,3
			c8.7-0.1,17.4-0.2,26.1-0.2c-0.5-0.6-0.9-1.2-1.4-1.9c-4.3,11.2-8.5,22.3-12.8,33.5c0.9,0,1.9,0,2.8,0C13.4,40.7,9,29.6,4.5,18.5
			c-0.5,0.6-0.9,1.2-1.4,1.9c8.7-0.1,17.4-0.2,26.1-0.2c-0.5-0.6-0.9-1.2-1.4-1.9c-4.3,11.2-8.5,22.3-12.8,33.5c0.9,0,1.9,0,2.8,0
			C13.4,40.7,9,29.6,4.5,18.5C3.8,16.8,1,17.5,1.7,19.3z"/>
	</g>
</g>
<circle class="st2" cx="16.2" cy="16.6" r="10.6"/>
<circle class="st0" cx="43.8" cy="26.6" r="14.5"/>
<g>
	<polygon class="st1" points="30.7,29.3 44.1,62.6 56.8,29.1 30.7,29.3 44.1,62.6 56.8,29.1 	"/>
	<g>
		<path class="st1" d="M29.3,29.7c4.5,11.1,8.9,22.2,13.4,33.3c0.6,1.4,2.3,1.4,2.8,0c4.3-11.2,8.5-22.3,12.8-33.5
			c0.3-0.9-0.5-1.9-1.4-1.9c-8.7,0.1-17.4,0.2-26.1,0.2C29.8,27.8,28.9,28.8,29.3,29.7c4.5,11.1,8.9,22.2,13.4,33.3
			c0.6,1.4,2.3,1.4,2.8,0c4.3-11.2,8.5-22.3,12.8-33.5c0.3-0.9-0.5-1.9-1.4-1.9c-8.7,0.1-17.4,0.2-26.1,0.2c-1.9,0-1.9,3,0,3
			c8.7-0.1,17.4-0.2,26.1-0.2c-0.5-0.6-0.9-1.2-1.4-1.9C51.1,39.8,46.9,51,42.6,62.2c0.9,0,1.9,0,2.8,0C41,51.1,36.6,40,32.1,28.9
			c-0.5,0.6-0.9,1.2-1.4,1.9c8.7-0.1,17.4-0.2,26.1-0.2c-0.5-0.6-0.9-1.2-1.4-1.9C51.1,39.8,46.9,51,42.6,62.2c0.9,0,1.9,0,2.8,0
			C41,51.1,36.6,40,32.1,28.9C31.4,27.2,28.6,27.9,29.3,29.7z"/>
	</g>
</g>
<circle class="st2" cx="43.8" cy="27" r="10.6"/>
<g>
	<g>
		<path class="st1" d="M10.2,53.9c-2.3,1.3-6.6,3.5-5.7,6.8c0.8,2.9,5,3.8,7.5,4.4c8.1,1.8,19.3,3,27.3,0.2c1.6-0.6,0.9-3.1-0.7-2.6
			c-5.9,2.1-13.6,1.3-19.7,0.7c-3.2-0.3-7.3-0.6-10.2-2.2c-3.5-2,0.7-3.9,2.9-5.1C13.1,55.4,11.8,53.1,10.2,53.9L10.2,53.9z"/>
	</g>
</g>
</svg>
