<?xml version="1.0" encoding="utf-8"?>
<!-- Generator: Adobe Illustrator 22.1.0, SVG Export Plug-In . SVG Version: 6.00 Build 0)  -->
<svg version="1.1" id="Layer_1" xmlns="http://www.w3.org/2000/svg" xmlns:xlink="http://www.w3.org/1999/xlink" x="0px" y="0px"
	 viewBox="0 0 53.7 47.8" style="enable-background:new 0 0 53.7 47.8;" xml:space="preserve">
<style type="text/css">
	.st0{fill:#EA8E44;}
	.st1{fill:#FFFFFF;}
	.st2{fill:#EA8E44;stroke:#EA8E44;stroke-width:0.7286;stroke-miterlimit:10;}
	.st3{fill:#F6F5F0;}
</style>
<polygon class="st0" points="53.7,16.4 26.9,16.3 0,16.2 13.5,8.1 26.9,0 40.3,8.2 "/>
<g>
	<rect x="12.5" y="15.1" class="st0" width="28.7" height="27.5"/>
	<g>
		<path class="st0" d="M41.2,10.1c-9.6,0-19.1,0-28.7,0c-2.7,0-5,2.3-5,5c0,9.2,0,18.3,0,27.5c0,2.7,2.3,5,5,5c9.6,0,19.1,0,28.7,0
			c2.7,0,5-2.3,5-5c0-9.2,0-18.3,0-27.5c0-6.4-10-6.4-10,0c0,9.2,0,18.3,0,27.5c1.7-1.7,3.3-3.3,5-5c-9.6,0-19.1,0-28.7,0
			c1.7,1.7,3.3,3.3,5,5c0-9.2,0-18.3,0-27.5c-1.7,1.7-3.3,3.3-5,5c9.6,0,19.1,0,28.7,0C47.6,20.1,47.6,10.1,41.2,10.1z"/>
	</g>
</g>
<path class="st1" d="M30,47.6c2,0,3.9,0.1,5.9,0c1,0,2-0.1,3-0.1c0.6,0.1,1.3,0.1,1.9,0.2c0.1,0,0.3,0.1,0.4,0.1c0,0,0,0,0-0.1
	c0,0,0,0,0,0c0,0,0,0,0,0c0-0.2,0-0.4,0-0.6V37c0-3.5-2.9-6.4-6.4-6.4s-6.4,2.9-6.4,6.4v10.1c0,0.2,0,0.5,0,0.7
	C29,47.7,29.5,47.6,30,47.6z"/>
<circle class="st2" cx="38.2" cy="40.5" r="0.8"/>
<g>
	<rect x="17.8" y="24.5" class="st3" width="4.4" height="4.4"/>
	<g>
		<path class="st1" d="M22.2,28.5c-1.5,0-2.9,0-4.4,0c0.1,0.1,0.3,0.3,0.4,0.4c0-1.5,0-2.9,0-4.4c-0.1,0.1-0.3,0.3-0.4,0.4
			c1.5,0,2.9,0,4.4,0c-0.1-0.1-0.3-0.3-0.4-0.4c0,1.5,0,2.9,0,4.4c0,0.5,0.8,0.5,0.8,0c0-1.5,0-2.9,0-4.4c0-0.2-0.2-0.4-0.4-0.4
			c-1.5,0-2.9,0-4.4,0c-0.2,0-0.4,0.2-0.4,0.4c0,1.5,0,2.9,0,4.4c0,0.2,0.2,0.4,0.4,0.4c1.5,0,2.9,0,4.4,0
			C22.7,29.2,22.7,28.5,22.2,28.5z"/>
	</g>
</g>
<g>
	<rect x="17.8" y="18.6" class="st3" width="4.4" height="4.4"/>
	<g>
		<path class="st1" d="M22.2,22.6c-1.5,0-2.9,0-4.4,0c0.1,0.1,0.3,0.3,0.4,0.4c0-1.5,0-2.9,0-4.4c-0.1,0.1-0.3,0.3-0.4,0.4
			c1.5,0,2.9,0,4.4,0c-0.1-0.1-0.3-0.3-0.4-0.4c0,1.5,0,2.9,0,4.4c0,0.5,0.8,0.5,0.8,0c0-1.5,0-2.9,0-4.4c0-0.2-0.2-0.4-0.4-0.4
			c-1.5,0-2.9,0-4.4,0c-0.2,0-0.4,0.2-0.4,0.4c0,1.5,0,2.9,0,4.4c0,0.2,0.2,0.4,0.4,0.4c1.5,0,2.9,0,4.4,0
			C22.7,23.3,22.7,22.6,22.2,22.6z"/>
	</g>
</g>
<g>
	<rect x="11.8" y="18.6" class="st3" width="4.4" height="4.4"/>
	<g>
		<path class="st1" d="M16.2,22.6c-1.5,0-2.9,0-4.4,0c0.1,0.1,0.3,0.3,0.4,0.4c0-1.5,0-2.9,0-4.4c-0.1,0.1-0.3,0.3-0.4,0.4
			c1.5,0,2.9,0,4.4,0c-0.1-0.1-0.3-0.3-0.4-0.4c0,1.5,0,2.9,0,4.4c0,0.5,0.8,0.5,0.8,0c0-1.5,0-2.9,0-4.4c0-0.2-0.2-0.4-0.4-0.4
			c-1.5,0-2.9,0-4.4,0c-0.2,0-0.4,0.2-0.4,0.4c0,1.5,0,2.9,0,4.4c0,0.2,0.2,0.4,0.4,0.4c1.5,0,2.9,0,4.4,0
			C16.6,23.3,16.6,22.6,16.2,22.6z"/>
	</g>
</g>
<g>
	<rect x="11.8" y="24.5" class="st3" width="4.4" height="4.4"/>
	<g>
		<path class="st1" d="M16.2,28.5c-1.5,0-2.9,0-4.4,0c0.1,0.1,0.3,0.3,0.4,0.4c0-1.5,0-2.9,0-4.4c-0.1,0.1-0.3,0.3-0.4,0.4
			c1.5,0,2.9,0,4.4,0c-0.1-0.1-0.3-0.3-0.4-0.4c0,1.5,0,2.9,0,4.4c0,0.5,0.8,0.5,0.8,0c0-1.5,0-2.9,0-4.4c0-0.2-0.2-0.4-0.4-0.4
			c-1.5,0-2.9,0-4.4,0c-0.2,0-0.4,0.2-0.4,0.4c0,1.5,0,2.9,0,4.4c0,0.2,0.2,0.4,0.4,0.4c1.5,0,2.9,0,4.4,0
			C16.6,29.2,16.6,28.5,16.2,28.5z"/>
	</g>
</g>
</svg>
