<?xml version="1.0" encoding="utf-8"?>
<!-- Generator: Adobe Illustrator 22.1.0, SVG Export Plug-In . SVG Version: 6.00 Build 0)  -->
<svg version="1.1" id="Layer_1" xmlns="http://www.w3.org/2000/svg" xmlns:xlink="http://www.w3.org/1999/xlink" x="0px" y="0px"
	 viewBox="0 0 152.7 98" style="enable-background:new 0 0 152.7 98;" xml:space="preserve">
<style type="text/css">
	.st0{font-family:'AvianoFutureBlackFast';}
	.st1{font-size:20px;}
	.st2{font-family:'MyriadPro-Regular';}
	.st3{font-size:5px;}
</style>
<g>
	<g>
		<path d="M100.4,60.9c-0.3,7.2-5.8,13.3-13.3,13.3c-7.2,0-13.3-6-13.3-13.3c0-7.2,6.1-13.3,13.3-13.3
			C94.6,47.6,100.1,53.7,100.4,60.9c0.1,1.4,2.3,1.4,2.2,0c-0.4-8.4-6.8-15.5-15.5-15.5c-8.4,0-15.5,7.1-15.5,15.5
			c0,8.4,7.1,15.5,15.5,15.5c8.7,0,15.1-7.1,15.5-15.5C102.7,59.5,100.5,59.5,100.4,60.9z"/>
	</g>
</g>
<g>
	<g>
		<path d="M148.7,60.9c-0.3,7.2-5.8,13.3-13.3,13.3c-7.2,0-13.3-6-13.3-13.3c0-7.2,6.1-13.3,13.3-13.3
			C142.9,47.6,148.3,53.7,148.7,60.9c0.1,1.4,2.3,1.4,2.2,0c-0.4-8.4-6.8-15.5-15.5-15.5c-8.4,0-15.5,7.1-15.5,15.5
			c0,8.4,7.1,15.5,15.5,15.5c8.7,0,15.1-7.1,15.5-15.5C150.9,59.5,148.7,59.5,148.7,60.9z"/>
	</g>
</g>
<g>
	<g>
		<path d="M113.8,64.2c0.4-5.5,0.7-11,1.1-16.5c0.2-3.9-5.8-3.8-6,0c-0.4,5.5-0.7,11-1.1,16.5C107.5,68,113.5,68,113.8,64.2
			L113.8,64.2z"/>
	</g>
</g>
<g>
	<g>
		<path d="M102.7,45.3c5.5-5.6,11-11.2,16.4-16.7c3.4-3.4-1.9-8.8-5.3-5.3c-5.5,5.6-11,11.2-16.4,16.7C94,43.4,99.3,48.7,102.7,45.3
			L102.7,45.3z"/>
	</g>
</g>
<circle cx="126.5" cy="18.8" r="6.4"/>
<g>
	<g>
		<path d="M130.5,34.5c-4.3-0.1-8.6-0.2-12.9-0.3c-1.9,0-1.9,3,0,3c4.3,0.1,8.6,0.2,12.9,0.3C132.4,37.5,132.4,34.5,130.5,34.5
			L130.5,34.5z"/>
	</g>
</g>
<text transform="matrix(1 0 0 1 0 92.75)" class="st0 st1">RE-CYCLE</text>
<text transform="matrix(0.7056 -0.7086 0.7086 0.7056 87.1836 44.0341)" class="st2 st3">Your Eco Friendly tour Guide</text>
</svg>
