<svg xmlns="http://www.w3.org/2000/svg" viewBox="0 0 91.71 75.13"><defs><style>.cls-1{fill:#b3b3b3;}.cls-2,.cls-3{fill:#ea8e44;}.cls-3{stroke:#ea8e44;stroke-miterlimit:10;stroke-width:1.05px;}.cls-4{fill:#fff;}</style></defs><title>phone</title><g id="Layer_2" data-name="Layer 2"><ellipse class="cls-1" cx="45.85" cy="37.56" rx="45.85" ry="37.56"/></g><g id="Layer_1" data-name="Layer 1"><path class="cls-2" d="M17,26.43C20,46.26,33.23,59.66,51.29,67.08c6,2.45,8.54-7.22,2.66-9.64C38.92,51.26,29.06,40,26.67,23.77c-.93-6.34-10.57-3.64-9.64,2.66Z"/><rect class="cls-2" x="19.55" y="21.12" width="10.75" height="10.01" rx="2.49" ry="2.49" transform="translate(-5.58 6.8) rotate(-13.99)"/><path class="cls-2" d="M28.54,28.86l-2.8.7c-.74.19-2.21.88-3,.72C21.46,30,21.37,28,21.13,27c-.29-1.14-1.19-2.83.17-3.64a10.73,10.73,0,0,1,2.58-.65c.84-.21,2.22-.87,3.09-.75,1.39.17,1.44,2,1.69,3s1.35,3.32-.12,3.86c-1.76.66-1,3.51.79,2.85a4.16,4.16,0,0,0,2.74-5.23,27,27,0,0,0-1.32-5c-1.74-3.94-7.18-1.88-10.23-.9a4.1,4.1,0,0,0-2.8,5A26.27,26.27,0,0,0,19.1,30.8c1.8,4.12,7.08,1.69,10.23.91C31.16,31.25,30.39,28.41,28.54,28.86Z"/><rect class="cls-2" x="46.82" y="53.39" width="11.6" height="10.59" rx="2.68" ry="2.68" transform="translate(-22.59 82.25) rotate(-65.52)"/><path class="cls-2" d="M57.37,57.24c-.82,1.79-1.44,4.06-2.58,5.66s-2.52.27-3.78-.3c-.95-.43-3-1-3.13-2.22-.07-.92.91-2.3,1.28-3.1a16.93,16.93,0,0,1,1.29-2.84c1-1.44,2.53-.24,3.78.32s3.55,1.11,3,2.86c-.62,1.93,2.41,2.76,3,.83a4.38,4.38,0,0,0-2.5-5.52,25.59,25.59,0,0,0-5.28-2.32c-4.33-1-6.29,5-7.4,8.11-1.64,4.58,3.81,6.92,7.4,7.94C57.18,68,58.64,62,60.09,58.83,60.92,57,58.21,55.4,57.37,57.24Z"/><circle class="cls-3" cx="55.6" cy="28.64" r="12.71"/><polygon class="cls-2" points="57.48 36.8 60.06 35.12 62.63 33.44 63.76 37.98 64.88 42.53 61.18 39.66 57.48 36.8"/><path class="cls-2" d="M58.4,38.37,63.56,35l-2.69-1.1L63.12,43l3.06-1.78L58.77,35.5c-1.84-1.42-4.44,1.15-2.58,2.59l7.4,5.73c1.38,1.07,3.53.14,3.06-1.77L64.4,33a1.85,1.85,0,0,0-2.69-1.09l-5.15,3.36C54.59,36.5,56.42,39.66,58.4,38.37Z"/><path class="cls-4" d="M65.35,21.9H45.85a.76.76,0,0,0-.75.75V35a.77.77,0,0,0,.75.75h19.5A.76.76,0,0,0,66.1,35V22.65a.75.75,0,0,0-1.5,0v8.46a27.48,27.48,0,0,1,0,3.85c.22-1.47,1.18-.38.15-.68a4.35,4.35,0,0,0-1.14,0H48.08c-.61,0-2.54-.36-1.83.34s.35-2.14.35-2.8V26.21a25.55,25.55,0,0,1,0-3.5c-.21,1.48-1.17.39-.14.69a5.31,5.31,0,0,0,1.38,0H65.35A.75.75,0,0,0,65.35,21.9Z"/><path class="cls-4" d="M45.86,23.32l19.5.05L65,22.13l-4.89,3.16L58,26.67a18.12,18.12,0,0,0-1.72,1.12c-.21.17-1.25.59-.68.6.25,0-1.61-1.22-2.1-1.54l-2.43-1.59-4.87-3.19c-.72-.47-1.39.69-.67,1.16l9.73,6.37a.64.64,0,0,0,.68,0l9.76-6.32A.68.68,0,0,0,65.36,22L45.86,22A.67.67,0,0,0,45.86,23.32Z"/></g></svg>